<mxfile host="65bd71144e">
    <diagram id="E6WzANe-bvIu9jqoFTJZ" name="Page-1">
        <mxGraphModel dx="2403" dy="4600" grid="0" gridSize="10" guides="1" tooltips="1" connect="1" arrows="1" fold="1" page="0" pageScale="1" pageWidth="850" pageHeight="1100" math="0" shadow="0">
            <root>
                <mxCell id="0"/>
                <mxCell id="1" parent="0"/>
                <mxCell id="247" value="" style="whiteSpace=wrap;html=1;aspect=fixed;" parent="1" vertex="1">
                    <mxGeometry x="1887" y="-723" width="588" height="588" as="geometry"/>
                </mxCell>
                <mxCell id="2" value="" style="whiteSpace=wrap;html=1;aspect=fixed;" parent="1" vertex="1">
                    <mxGeometry x="87" y="155" width="588" height="588" as="geometry"/>
                </mxCell>
                <mxCell id="3" value="" style="rounded=0;whiteSpace=wrap;html=1;" parent="1" vertex="1">
                    <mxGeometry x="225.75" y="297.75" width="310.5" height="364.25" as="geometry"/>
                </mxCell>
                <mxCell id="4" value="f1_21" style="rounded=0;whiteSpace=wrap;html=1;" parent="1" vertex="1">
                    <mxGeometry x="250" y="329" width="187" height="60" as="geometry"/>
                </mxCell>
                <mxCell id="5" value="Time Trials" style="rounded=0;whiteSpace=wrap;html=1;" parent="1" vertex="1">
                    <mxGeometry x="86" y="155" width="589" height="60" as="geometry"/>
                </mxCell>
                <mxCell id="6" value="Select" style="rounded=0;whiteSpace=wrap;html=1;" parent="1" vertex="1">
                    <mxGeometry x="437" y="329" width="75" height="60" as="geometry"/>
                </mxCell>
                <mxCell id="7" value="f1_22" style="rounded=0;whiteSpace=wrap;html=1;" parent="1" vertex="1">
                    <mxGeometry x="250" y="389" width="187" height="60" as="geometry"/>
                </mxCell>
                <mxCell id="8" value="Select" style="rounded=0;whiteSpace=wrap;html=1;" parent="1" vertex="1">
                    <mxGeometry x="437" y="389" width="75" height="60" as="geometry"/>
                </mxCell>
                <mxCell id="9" value="acc" style="rounded=0;whiteSpace=wrap;html=1;" parent="1" vertex="1">
                    <mxGeometry x="250" y="449" width="187" height="60" as="geometry"/>
                </mxCell>
                <mxCell id="10" value="Select" style="rounded=0;whiteSpace=wrap;html=1;" parent="1" vertex="1">
                    <mxGeometry x="437" y="449" width="75" height="60" as="geometry"/>
                </mxCell>
                <mxCell id="11" value="forza" style="rounded=0;whiteSpace=wrap;html=1;" parent="1" vertex="1">
                    <mxGeometry x="250" y="509" width="187" height="60" as="geometry"/>
                </mxCell>
                <mxCell id="12" value="Select" style="rounded=0;whiteSpace=wrap;html=1;" parent="1" vertex="1">
                    <mxGeometry x="437" y="509" width="75" height="60" as="geometry"/>
                </mxCell>
                <mxCell id="13" value="" style="endArrow=classic;html=1;" parent="1" edge="1">
                    <mxGeometry width="50" height="50" relative="1" as="geometry">
                        <mxPoint x="705" y="449" as="sourcePoint"/>
                        <mxPoint x="918" y="449" as="targetPoint"/>
                    </mxGeometry>
                </mxCell>
                <mxCell id="14" value="" style="whiteSpace=wrap;html=1;aspect=fixed;" parent="1" vertex="1">
                    <mxGeometry x="940" y="155" width="588" height="588" as="geometry"/>
                </mxCell>
                <mxCell id="15" value="" style="rounded=0;whiteSpace=wrap;html=1;" parent="1" vertex="1">
                    <mxGeometry x="1078.75" y="344" width="310.5" height="371" as="geometry"/>
                </mxCell>
                <mxCell id="16" value="Spa" style="rounded=0;whiteSpace=wrap;html=1;" parent="1" vertex="1">
                    <mxGeometry x="1103" y="375.25" width="187" height="60" as="geometry"/>
                </mxCell>
                <mxCell id="17" value="Time Trials" style="rounded=0;whiteSpace=wrap;html=1;" parent="1" vertex="1">
                    <mxGeometry x="939" y="155" width="589" height="60" as="geometry"/>
                </mxCell>
                <mxCell id="18" value="Select" style="rounded=0;whiteSpace=wrap;html=1;" parent="1" vertex="1">
                    <mxGeometry x="1290" y="375.25" width="75" height="60" as="geometry"/>
                </mxCell>
                <mxCell id="19" value="Monza" style="rounded=0;whiteSpace=wrap;html=1;" parent="1" vertex="1">
                    <mxGeometry x="1103" y="435.25" width="187" height="60" as="geometry"/>
                </mxCell>
                <mxCell id="20" value="Select" style="rounded=0;whiteSpace=wrap;html=1;" parent="1" vertex="1">
                    <mxGeometry x="1290" y="435.25" width="75" height="60" as="geometry"/>
                </mxCell>
                <mxCell id="21" value="Jeddah" style="rounded=0;whiteSpace=wrap;html=1;" parent="1" vertex="1">
                    <mxGeometry x="1103" y="495.25" width="187" height="60" as="geometry"/>
                </mxCell>
                <mxCell id="22" value="Select" style="rounded=0;whiteSpace=wrap;html=1;" parent="1" vertex="1">
                    <mxGeometry x="1290" y="495.25" width="75" height="60" as="geometry"/>
                </mxCell>
                <mxCell id="23" value="Bahrain" style="rounded=0;whiteSpace=wrap;html=1;" parent="1" vertex="1">
                    <mxGeometry x="1103" y="555.25" width="187" height="60" as="geometry"/>
                </mxCell>
                <mxCell id="24" value="Select" style="rounded=0;whiteSpace=wrap;html=1;" parent="1" vertex="1">
                    <mxGeometry x="1290" y="555.25" width="75" height="60" as="geometry"/>
                </mxCell>
                <mxCell id="25" value="" style="rounded=0;whiteSpace=wrap;html=1;" parent="1" vertex="1">
                    <mxGeometry x="941" y="215" width="587" height="60" as="geometry"/>
                </mxCell>
                <mxCell id="26" value="f1_21" style="rounded=0;whiteSpace=wrap;html=1;" parent="1" vertex="1">
                    <mxGeometry x="940" y="215" width="143" height="60" as="geometry"/>
                </mxCell>
                <mxCell id="27" value="f1_22" style="rounded=0;whiteSpace=wrap;html=1;fillColor=#575757;" parent="1" vertex="1">
                    <mxGeometry x="1084" y="215" width="147" height="60" as="geometry"/>
                </mxCell>
                <mxCell id="28" value="acc" style="rounded=0;whiteSpace=wrap;html=1;" parent="1" vertex="1">
                    <mxGeometry x="1231" y="215" width="160" height="60" as="geometry"/>
                </mxCell>
                <mxCell id="29" value="forza" style="rounded=0;whiteSpace=wrap;html=1;" parent="1" vertex="1">
                    <mxGeometry x="1368" y="215" width="160" height="60" as="geometry"/>
                </mxCell>
                <mxCell id="30" value="" style="whiteSpace=wrap;html=1;aspect=fixed;" parent="1" vertex="1">
                    <mxGeometry x="1886" y="155" width="588" height="588" as="geometry"/>
                </mxCell>
                <mxCell id="31" value="" style="rounded=0;whiteSpace=wrap;html=1;" parent="1" vertex="1">
                    <mxGeometry x="2024.75" y="358" width="310.5" height="357" as="geometry"/>
                </mxCell>
                <mxCell id="33" value="Time Trials" style="rounded=0;whiteSpace=wrap;html=1;" parent="1" vertex="1">
                    <mxGeometry x="1885" y="155" width="589" height="60" as="geometry"/>
                </mxCell>
                <mxCell id="41" value="" style="rounded=0;whiteSpace=wrap;html=1;" parent="1" vertex="1">
                    <mxGeometry x="1887" y="215" width="587" height="60" as="geometry"/>
                </mxCell>
                <mxCell id="46" value="" style="endArrow=classic;html=1;" parent="1" edge="1">
                    <mxGeometry width="50" height="50" relative="1" as="geometry">
                        <mxPoint x="1604" y="449" as="sourcePoint"/>
                        <mxPoint x="1817" y="449" as="targetPoint"/>
                    </mxGeometry>
                </mxCell>
                <mxCell id="47" value="Spa" style="rounded=0;whiteSpace=wrap;html=1;fillColor=#575757;" parent="1" vertex="1">
                    <mxGeometry x="1885" y="275" width="143" height="60" as="geometry"/>
                </mxCell>
                <mxCell id="48" value="Monza" style="rounded=0;whiteSpace=wrap;html=1;" parent="1" vertex="1">
                    <mxGeometry x="2029" y="275" width="147" height="60" as="geometry"/>
                </mxCell>
                <mxCell id="49" value="Jeddah" style="rounded=0;whiteSpace=wrap;html=1;" parent="1" vertex="1">
                    <mxGeometry x="2176" y="275" width="160" height="60" as="geometry"/>
                </mxCell>
                <mxCell id="50" value="Bahrain" style="rounded=0;whiteSpace=wrap;html=1;" parent="1" vertex="1">
                    <mxGeometry x="2313" y="275" width="160" height="60" as="geometry"/>
                </mxCell>
                <mxCell id="51" value="&lt;h1&gt;Home screen&lt;/h1&gt;&lt;p&gt;- Offers a list of games to choose from with button to select games&lt;/p&gt;&lt;p&gt;- List of games is loaded via initial fetch call to express backend&lt;/p&gt;&lt;p&gt;- We will always keep track of these games so we will use redux to track and store all incoming data&lt;/p&gt;" style="text;html=1;strokeColor=none;fillColor=none;spacing=5;spacingTop=-20;whiteSpace=wrap;overflow=hidden;rounded=0;" parent="1" vertex="1">
                    <mxGeometry x="87" y="774" width="588" height="231" as="geometry"/>
                </mxCell>
                <mxCell id="52" value="&lt;h1&gt;Track Select&lt;/h1&gt;&lt;p&gt;- When a game is selected this should be the app state&lt;/p&gt;&lt;p&gt;- Note that all tracks folded into a new navbar component so when browsing you can switch between tracks easily. The track for the current game should be highlighted in the nav&lt;/p&gt;&lt;p&gt;- When selecting a track here it will have a similar behavior as selecting a game did&lt;/p&gt;&lt;p&gt;- The the fetched tracks should be saved to redux under the game that was selected&lt;/p&gt;&lt;p&gt;&lt;br&gt;&lt;/p&gt;&lt;p&gt;&lt;br&gt;&lt;/p&gt;" style="text;html=1;strokeColor=none;fillColor=none;spacing=5;spacingTop=-20;whiteSpace=wrap;overflow=hidden;rounded=0;" parent="1" vertex="1">
                    <mxGeometry x="941" y="769" width="591" height="231" as="geometry"/>
                </mxCell>
                <mxCell id="57" value="f1_21" style="rounded=0;whiteSpace=wrap;html=1;" parent="1" vertex="1">
                    <mxGeometry x="1885.5" y="215" width="143" height="60" as="geometry"/>
                </mxCell>
                <mxCell id="58" value="f1_22" style="rounded=0;whiteSpace=wrap;html=1;fillColor=#575757;" parent="1" vertex="1">
                    <mxGeometry x="2029.5" y="215" width="147" height="60" as="geometry"/>
                </mxCell>
                <mxCell id="59" value="acc" style="rounded=0;whiteSpace=wrap;html=1;" parent="1" vertex="1">
                    <mxGeometry x="2176.5" y="215" width="160" height="60" as="geometry"/>
                </mxCell>
                <mxCell id="60" value="forza" style="rounded=0;whiteSpace=wrap;html=1;" parent="1" vertex="1">
                    <mxGeometry x="2313.5" y="215" width="160" height="60" as="geometry"/>
                </mxCell>
                <mxCell id="61" value="Results" style="rounded=0;whiteSpace=wrap;html=1;" parent="1" vertex="1">
                    <mxGeometry x="2025" y="360" width="310" height="60" as="geometry"/>
                </mxCell>
                <mxCell id="62" value="" style="rounded=0;whiteSpace=wrap;html=1;fillColor=#2A2A2A;" parent="1" vertex="1">
                    <mxGeometry x="2042" y="435.25" width="277" height="32.75" as="geometry"/>
                </mxCell>
                <mxCell id="63" value="Position" style="rounded=0;whiteSpace=wrap;html=1;fillColor=#2A2A2A;" parent="1" vertex="1">
                    <mxGeometry x="2042" y="435.25" width="80" height="32.75" as="geometry"/>
                </mxCell>
                <mxCell id="64" value="Time" style="rounded=0;whiteSpace=wrap;html=1;fillColor=#2A2A2A;" parent="1" vertex="1">
                    <mxGeometry x="2120" y="435.25" width="64" height="32.75" as="geometry"/>
                </mxCell>
                <mxCell id="65" value="Name" style="rounded=0;whiteSpace=wrap;html=1;fillColor=#2A2A2A;" parent="1" vertex="1">
                    <mxGeometry x="2182" y="435.25" width="70" height="32.75" as="geometry"/>
                </mxCell>
                <mxCell id="66" value="Car" style="rounded=0;whiteSpace=wrap;html=1;fillColor=#2A2A2A;" parent="1" vertex="1">
                    <mxGeometry x="2252" y="435.25" width="70" height="32.75" as="geometry"/>
                </mxCell>
                <mxCell id="67" value="1" style="rounded=0;whiteSpace=wrap;html=1;fillColor=#2A2A2A;" parent="1" vertex="1">
                    <mxGeometry x="2042" y="468" width="80" height="32.75" as="geometry"/>
                </mxCell>
                <mxCell id="68" value="1:29.456" style="rounded=0;whiteSpace=wrap;html=1;fillColor=#2A2A2A;" parent="1" vertex="1">
                    <mxGeometry x="2120" y="468" width="64" height="32.75" as="geometry"/>
                </mxCell>
                <mxCell id="69" value="TMP" style="rounded=0;whiteSpace=wrap;html=1;fillColor=#2A2A2A;" parent="1" vertex="1">
                    <mxGeometry x="2182" y="468" width="70" height="32.75" as="geometry"/>
                </mxCell>
                <mxCell id="70" value="Equal perofrmance" style="rounded=0;whiteSpace=wrap;html=1;fillColor=#2A2A2A;" parent="1" vertex="1">
                    <mxGeometry x="2252" y="468" width="70" height="32.75" as="geometry"/>
                </mxCell>
                <mxCell id="71" value="2" style="rounded=0;whiteSpace=wrap;html=1;fillColor=#2A2A2A;" parent="1" vertex="1">
                    <mxGeometry x="2042" y="500.75" width="80" height="32.75" as="geometry"/>
                </mxCell>
                <mxCell id="72" value="1:29.510" style="rounded=0;whiteSpace=wrap;html=1;fillColor=#2A2A2A;" parent="1" vertex="1">
                    <mxGeometry x="2120" y="500.75" width="64" height="32.75" as="geometry"/>
                </mxCell>
                <mxCell id="73" value="TRZ" style="rounded=0;whiteSpace=wrap;html=1;fillColor=#2A2A2A;" parent="1" vertex="1">
                    <mxGeometry x="2182" y="500.75" width="70" height="32.75" as="geometry"/>
                </mxCell>
                <mxCell id="75" value="3" style="rounded=0;whiteSpace=wrap;html=1;fillColor=#2A2A2A;" parent="1" vertex="1">
                    <mxGeometry x="2042" y="533.5" width="80" height="32.75" as="geometry"/>
                </mxCell>
                <mxCell id="76" value="1:29.762" style="rounded=0;whiteSpace=wrap;html=1;fillColor=#2A2A2A;" parent="1" vertex="1">
                    <mxGeometry x="2120" y="533.5" width="64" height="32.75" as="geometry"/>
                </mxCell>
                <mxCell id="77" value="JBL" style="rounded=0;whiteSpace=wrap;html=1;fillColor=#2A2A2A;" parent="1" vertex="1">
                    <mxGeometry x="2182" y="533.5" width="70" height="32.75" as="geometry"/>
                </mxCell>
                <mxCell id="79" value="4" style="rounded=0;whiteSpace=wrap;html=1;fillColor=#2A2A2A;" parent="1" vertex="1">
                    <mxGeometry x="2042" y="566.25" width="80" height="32.75" as="geometry"/>
                </mxCell>
                <mxCell id="80" value="1:29.829" style="rounded=0;whiteSpace=wrap;html=1;fillColor=#2A2A2A;" parent="1" vertex="1">
                    <mxGeometry x="2120" y="566.25" width="64" height="32.75" as="geometry"/>
                </mxCell>
                <mxCell id="81" value="ALB" style="rounded=0;whiteSpace=wrap;html=1;fillColor=#2A2A2A;" parent="1" vertex="1">
                    <mxGeometry x="2182" y="566.25" width="70" height="32.75" as="geometry"/>
                </mxCell>
                <mxCell id="83" value="5" style="rounded=0;whiteSpace=wrap;html=1;fillColor=#2A2A2A;" parent="1" vertex="1">
                    <mxGeometry x="2042" y="599" width="80" height="32.75" as="geometry"/>
                </mxCell>
                <mxCell id="84" value="1:30.035" style="rounded=0;whiteSpace=wrap;html=1;fillColor=#2A2A2A;" parent="1" vertex="1">
                    <mxGeometry x="2120" y="599" width="64" height="32.75" as="geometry"/>
                </mxCell>
                <mxCell id="85" value="MAT" style="rounded=0;whiteSpace=wrap;html=1;fillColor=#2A2A2A;" parent="1" vertex="1">
                    <mxGeometry x="2182" y="599" width="70" height="32.75" as="geometry"/>
                </mxCell>
                <mxCell id="87" value="Equal perofrmance" style="rounded=0;whiteSpace=wrap;html=1;fillColor=#2A2A2A;" parent="1" vertex="1">
                    <mxGeometry x="2252" y="500.75" width="70" height="32.75" as="geometry"/>
                </mxCell>
                <mxCell id="88" value="Equal perofrmance" style="rounded=0;whiteSpace=wrap;html=1;fillColor=#2A2A2A;" parent="1" vertex="1">
                    <mxGeometry x="2252" y="533.5" width="70" height="32.75" as="geometry"/>
                </mxCell>
                <mxCell id="89" value="Equal perofrmance" style="rounded=0;whiteSpace=wrap;html=1;fillColor=#2A2A2A;" parent="1" vertex="1">
                    <mxGeometry x="2252" y="567.5" width="70" height="32.75" as="geometry"/>
                </mxCell>
                <mxCell id="90" value="Equal perofrmance" style="rounded=0;whiteSpace=wrap;html=1;fillColor=#2A2A2A;" parent="1" vertex="1">
                    <mxGeometry x="2252" y="599" width="70" height="32.75" as="geometry"/>
                </mxCell>
                <mxCell id="91" value="Add New Time" style="rounded=1;whiteSpace=wrap;html=1;fillColor=#2A2A2A;" parent="1" vertex="1">
                    <mxGeometry x="2129" y="643" width="120" height="60" as="geometry"/>
                </mxCell>
                <mxCell id="92" value="Add New Time" style="rounded=1;whiteSpace=wrap;html=1;fillColor=#2A2A2A;" parent="1" vertex="1">
                    <mxGeometry x="2376" y="165" width="84" height="40" as="geometry"/>
                </mxCell>
                <mxCell id="93" value="Add New Time" style="rounded=1;whiteSpace=wrap;html=1;fillColor=#2A2A2A;" parent="1" vertex="1">
                    <mxGeometry x="1430" y="165" width="84" height="40" as="geometry"/>
                </mxCell>
                <mxCell id="94" value="Add New Time" style="rounded=1;whiteSpace=wrap;html=1;fillColor=#2A2A2A;" parent="1" vertex="1">
                    <mxGeometry x="580" y="165" width="84" height="40" as="geometry"/>
                </mxCell>
                <mxCell id="95" value="Add New Track" style="rounded=1;whiteSpace=wrap;html=1;fillColor=#2A2A2A;" parent="1" vertex="1">
                    <mxGeometry x="1174" y="637" width="120" height="60" as="geometry"/>
                </mxCell>
                <mxCell id="96" value="Add New Game" style="rounded=1;whiteSpace=wrap;html=1;fillColor=#2A2A2A;" parent="1" vertex="1">
                    <mxGeometry x="321" y="585.38" width="120" height="60" as="geometry"/>
                </mxCell>
                <mxCell id="97" value="" style="whiteSpace=wrap;html=1;aspect=fixed;" parent="1" vertex="1">
                    <mxGeometry x="87" y="1111" width="588" height="588" as="geometry"/>
                </mxCell>
                <mxCell id="98" value="" style="rounded=0;whiteSpace=wrap;html=1;" parent="1" vertex="1">
                    <mxGeometry x="225.75" y="1253.75" width="310.5" height="364.25" as="geometry"/>
                </mxCell>
                <mxCell id="99" value="f1_21" style="rounded=0;whiteSpace=wrap;html=1;" parent="1" vertex="1">
                    <mxGeometry x="250" y="1285" width="187" height="60" as="geometry"/>
                </mxCell>
                <mxCell id="100" value="Time Trials" style="rounded=0;whiteSpace=wrap;html=1;" parent="1" vertex="1">
                    <mxGeometry x="86" y="1111" width="589" height="60" as="geometry"/>
                </mxCell>
                <mxCell id="101" value="Select" style="rounded=0;whiteSpace=wrap;html=1;" parent="1" vertex="1">
                    <mxGeometry x="437" y="1285" width="75" height="60" as="geometry"/>
                </mxCell>
                <mxCell id="102" value="f1_22" style="rounded=0;whiteSpace=wrap;html=1;" parent="1" vertex="1">
                    <mxGeometry x="250" y="1345" width="187" height="60" as="geometry"/>
                </mxCell>
                <mxCell id="103" value="Select" style="rounded=0;whiteSpace=wrap;html=1;" parent="1" vertex="1">
                    <mxGeometry x="437" y="1345" width="75" height="60" as="geometry"/>
                </mxCell>
                <mxCell id="104" value="acc" style="rounded=0;whiteSpace=wrap;html=1;" parent="1" vertex="1">
                    <mxGeometry x="250" y="1405" width="187" height="60" as="geometry"/>
                </mxCell>
                <mxCell id="105" value="Select" style="rounded=0;whiteSpace=wrap;html=1;" parent="1" vertex="1">
                    <mxGeometry x="437" y="1405" width="75" height="60" as="geometry"/>
                </mxCell>
                <mxCell id="106" value="forza" style="rounded=0;whiteSpace=wrap;html=1;" parent="1" vertex="1">
                    <mxGeometry x="250" y="1465" width="187" height="60" as="geometry"/>
                </mxCell>
                <mxCell id="107" value="Select" style="rounded=0;whiteSpace=wrap;html=1;" parent="1" vertex="1">
                    <mxGeometry x="437" y="1465" width="75" height="60" as="geometry"/>
                </mxCell>
                <mxCell id="108" value="Add New Time" style="rounded=1;whiteSpace=wrap;html=1;fillColor=#2A2A2A;" parent="1" vertex="1">
                    <mxGeometry x="580" y="1121" width="84" height="40" as="geometry"/>
                </mxCell>
                <mxCell id="109" value="Add New Game" style="rounded=1;whiteSpace=wrap;html=1;fillColor=#2A2A2A;" parent="1" vertex="1">
                    <mxGeometry x="321" y="1541.38" width="120" height="60" as="geometry"/>
                </mxCell>
                <mxCell id="110" value="&lt;h1&gt;Home screen/Add New Time Button Clicked&lt;/h1&gt;&lt;p&gt;- Display a modal that allows you to fill fields to add a new time&lt;/p&gt;&lt;p&gt;- This button should be pinned to the navbar at all times and when clicked will initiate an empty form&lt;/p&gt;&lt;p&gt;&lt;br&gt;&lt;/p&gt;" style="text;html=1;strokeColor=none;fillColor=none;spacing=5;spacingTop=-20;whiteSpace=wrap;overflow=hidden;rounded=0;" parent="1" vertex="1">
                    <mxGeometry x="87" y="965" width="588" height="124" as="geometry"/>
                </mxCell>
                <mxCell id="111" value="" style="rounded=0;whiteSpace=wrap;html=1;fillColor=#2A2A2A;" parent="1" vertex="1">
                    <mxGeometry x="181" y="1231" width="407" height="416" as="geometry"/>
                </mxCell>
                <mxCell id="112" value="Add New Time" style="rounded=0;whiteSpace=wrap;html=1;fillColor=#2A2A2A;" parent="1" vertex="1">
                    <mxGeometry x="181" y="1231" width="406" height="60" as="geometry"/>
                </mxCell>
                <mxCell id="113" value="Game:" style="rounded=0;whiteSpace=wrap;html=1;fillColor=#2A2A2A;" parent="1" vertex="1">
                    <mxGeometry x="281.5" y="1339" width="79" height="29" as="geometry"/>
                </mxCell>
                <mxCell id="114" value="" style="rounded=0;whiteSpace=wrap;html=1;fillColor=#2A2A2A;" parent="1" vertex="1">
                    <mxGeometry x="360.5" y="1339" width="120" height="29" as="geometry"/>
                </mxCell>
                <mxCell id="115" value="Track:" style="rounded=0;whiteSpace=wrap;html=1;fillColor=#2A2A2A;" parent="1" vertex="1">
                    <mxGeometry x="281.5" y="1395" width="79" height="29" as="geometry"/>
                </mxCell>
                <mxCell id="116" value="" style="rounded=0;whiteSpace=wrap;html=1;fillColor=#2A2A2A;" parent="1" vertex="1">
                    <mxGeometry x="360.5" y="1395" width="120" height="29" as="geometry"/>
                </mxCell>
                <mxCell id="117" value="Driver:" style="rounded=0;whiteSpace=wrap;html=1;fillColor=#2A2A2A;" parent="1" vertex="1">
                    <mxGeometry x="281.5" y="1449" width="79" height="29" as="geometry"/>
                </mxCell>
                <mxCell id="118" value="" style="rounded=0;whiteSpace=wrap;html=1;fillColor=#2A2A2A;" parent="1" vertex="1">
                    <mxGeometry x="360.5" y="1449" width="120" height="29" as="geometry"/>
                </mxCell>
                <mxCell id="119" value="Time:" style="rounded=0;whiteSpace=wrap;html=1;fillColor=#2A2A2A;" parent="1" vertex="1">
                    <mxGeometry x="281.5" y="1499" width="79" height="29" as="geometry"/>
                </mxCell>
                <mxCell id="120" value="" style="rounded=0;whiteSpace=wrap;html=1;fillColor=#2A2A2A;" parent="1" vertex="1">
                    <mxGeometry x="360.5" y="1499" width="120" height="29" as="geometry"/>
                </mxCell>
                <mxCell id="121" value="Submit" style="rounded=1;whiteSpace=wrap;html=1;fillColor=#2A2A2A;" parent="1" vertex="1">
                    <mxGeometry x="335.5" y="1561" width="90" height="37" as="geometry"/>
                </mxCell>
                <mxCell id="146" value="" style="whiteSpace=wrap;html=1;aspect=fixed;" parent="1" vertex="1">
                    <mxGeometry x="91" y="1937" width="588" height="588" as="geometry"/>
                </mxCell>
                <mxCell id="147" value="" style="rounded=0;whiteSpace=wrap;html=1;" parent="1" vertex="1">
                    <mxGeometry x="229.75" y="2079.75" width="310.5" height="364.25" as="geometry"/>
                </mxCell>
                <mxCell id="148" value="f1_21" style="rounded=0;whiteSpace=wrap;html=1;" parent="1" vertex="1">
                    <mxGeometry x="254" y="2111" width="187" height="60" as="geometry"/>
                </mxCell>
                <mxCell id="149" value="Time Trials" style="rounded=0;whiteSpace=wrap;html=1;" parent="1" vertex="1">
                    <mxGeometry x="90" y="1937" width="589" height="60" as="geometry"/>
                </mxCell>
                <mxCell id="150" value="Select" style="rounded=0;whiteSpace=wrap;html=1;" parent="1" vertex="1">
                    <mxGeometry x="441" y="2111" width="75" height="60" as="geometry"/>
                </mxCell>
                <mxCell id="151" value="f1_22" style="rounded=0;whiteSpace=wrap;html=1;" parent="1" vertex="1">
                    <mxGeometry x="254" y="2171" width="187" height="60" as="geometry"/>
                </mxCell>
                <mxCell id="152" value="Select" style="rounded=0;whiteSpace=wrap;html=1;" parent="1" vertex="1">
                    <mxGeometry x="441" y="2171" width="75" height="60" as="geometry"/>
                </mxCell>
                <mxCell id="153" value="acc" style="rounded=0;whiteSpace=wrap;html=1;" parent="1" vertex="1">
                    <mxGeometry x="254" y="2231" width="187" height="60" as="geometry"/>
                </mxCell>
                <mxCell id="154" value="Select" style="rounded=0;whiteSpace=wrap;html=1;" parent="1" vertex="1">
                    <mxGeometry x="441" y="2231" width="75" height="60" as="geometry"/>
                </mxCell>
                <mxCell id="155" value="forza" style="rounded=0;whiteSpace=wrap;html=1;" parent="1" vertex="1">
                    <mxGeometry x="254" y="2291" width="187" height="60" as="geometry"/>
                </mxCell>
                <mxCell id="156" value="Select" style="rounded=0;whiteSpace=wrap;html=1;" parent="1" vertex="1">
                    <mxGeometry x="441" y="2291" width="75" height="60" as="geometry"/>
                </mxCell>
                <mxCell id="157" value="Add New Time" style="rounded=1;whiteSpace=wrap;html=1;fillColor=#2A2A2A;" parent="1" vertex="1">
                    <mxGeometry x="584" y="1947" width="84" height="40" as="geometry"/>
                </mxCell>
                <mxCell id="158" value="Add New Game" style="rounded=1;whiteSpace=wrap;html=1;fillColor=#2A2A2A;" parent="1" vertex="1">
                    <mxGeometry x="325" y="2367.38" width="120" height="60" as="geometry"/>
                </mxCell>
                <mxCell id="159" value="&lt;h1&gt;Home screen/Add New Game Button Clicked&lt;/h1&gt;&lt;p&gt;- Display a modal that allows you to fill a single field with a game name&lt;/p&gt;&lt;p&gt;- When submitted dummy data will be used to create a new track and time for this game (cannot be created without one)&lt;/p&gt;&lt;p&gt;- Then a function will run to delete the track and time from the table&lt;/p&gt;" style="text;html=1;strokeColor=none;fillColor=none;spacing=5;spacingTop=-20;whiteSpace=wrap;overflow=hidden;rounded=0;" parent="1" vertex="1">
                    <mxGeometry x="91" y="1791" width="588" height="137" as="geometry"/>
                </mxCell>
                <mxCell id="160" value="" style="rounded=0;whiteSpace=wrap;html=1;fillColor=#2A2A2A;" parent="1" vertex="1">
                    <mxGeometry x="185" y="2057" width="407" height="416" as="geometry"/>
                </mxCell>
                <mxCell id="161" value="Add New Time" style="rounded=0;whiteSpace=wrap;html=1;fillColor=#2A2A2A;" parent="1" vertex="1">
                    <mxGeometry x="185" y="2057" width="406" height="60" as="geometry"/>
                </mxCell>
                <mxCell id="162" value="Game:" style="rounded=0;whiteSpace=wrap;html=1;fillColor=#2A2A2A;" parent="1" vertex="1">
                    <mxGeometry x="285.5" y="2250.5" width="79" height="29" as="geometry"/>
                </mxCell>
                <mxCell id="163" value="" style="rounded=0;whiteSpace=wrap;html=1;fillColor=#2A2A2A;" parent="1" vertex="1">
                    <mxGeometry x="364.5" y="2250.5" width="120" height="29" as="geometry"/>
                </mxCell>
                <mxCell id="170" value="Submit" style="rounded=1;whiteSpace=wrap;html=1;fillColor=#2A2A2A;" parent="1" vertex="1">
                    <mxGeometry x="339.5" y="2387" width="90" height="37" as="geometry"/>
                </mxCell>
                <mxCell id="171" value="Improved Version" style="rounded=0;whiteSpace=wrap;html=1;fillColor=#2A2A2A;" parent="1" vertex="1">
                    <mxGeometry x="85" y="-29" width="2387" height="153" as="geometry"/>
                </mxCell>
                <mxCell id="173" value="MVP" style="rounded=0;whiteSpace=wrap;html=1;fillColor=#2A2A2A;" parent="1" vertex="1">
                    <mxGeometry x="86" y="-908" width="2388" height="60" as="geometry"/>
                </mxCell>
                <mxCell id="175" value="" style="whiteSpace=wrap;html=1;aspect=fixed;" parent="1" vertex="1">
                    <mxGeometry x="86" y="-743" width="588" height="588" as="geometry"/>
                </mxCell>
                <mxCell id="176" value="Time Trial" style="rounded=0;whiteSpace=wrap;html=1;fillColor=#2A2A2A;" parent="1" vertex="1">
                    <mxGeometry x="86" y="-743" width="587" height="60" as="geometry"/>
                </mxCell>
                <mxCell id="177" value="Add Time" style="rounded=1;whiteSpace=wrap;html=1;fillColor=#2A2A2A;" parent="1" vertex="1">
                    <mxGeometry x="558" y="-733" width="106" height="41" as="geometry"/>
                </mxCell>
                <mxCell id="188" value="" style="rounded=0;whiteSpace=wrap;html=1;" parent="1" vertex="1">
                    <mxGeometry x="236" y="-600" width="310.5" height="307.12" as="geometry"/>
                </mxCell>
                <mxCell id="189" value="f1_21" style="rounded=0;whiteSpace=wrap;html=1;" parent="1" vertex="1">
                    <mxGeometry x="260.25" y="-568.75" width="187" height="60" as="geometry"/>
                </mxCell>
                <mxCell id="190" value="Select" style="rounded=0;whiteSpace=wrap;html=1;" parent="1" vertex="1">
                    <mxGeometry x="447.25" y="-568.75" width="75" height="60" as="geometry"/>
                </mxCell>
                <mxCell id="191" value="f1_22" style="rounded=0;whiteSpace=wrap;html=1;" parent="1" vertex="1">
                    <mxGeometry x="260.25" y="-508.75" width="187" height="60" as="geometry"/>
                </mxCell>
                <mxCell id="192" value="Select" style="rounded=0;whiteSpace=wrap;html=1;" parent="1" vertex="1">
                    <mxGeometry x="447.25" y="-508.75" width="75" height="60" as="geometry"/>
                </mxCell>
                <mxCell id="193" value="acc" style="rounded=0;whiteSpace=wrap;html=1;" parent="1" vertex="1">
                    <mxGeometry x="260.25" y="-448.75" width="187" height="60" as="geometry"/>
                </mxCell>
                <mxCell id="194" value="Select" style="rounded=0;whiteSpace=wrap;html=1;" parent="1" vertex="1">
                    <mxGeometry x="447.25" y="-448.75" width="75" height="60" as="geometry"/>
                </mxCell>
                <mxCell id="195" value="forza" style="rounded=0;whiteSpace=wrap;html=1;" parent="1" vertex="1">
                    <mxGeometry x="260.25" y="-388.75" width="187" height="60" as="geometry"/>
                </mxCell>
                <mxCell id="196" value="Select" style="rounded=0;whiteSpace=wrap;html=1;" parent="1" vertex="1">
                    <mxGeometry x="449" y="-388.75" width="75" height="60" as="geometry"/>
                </mxCell>
                <mxCell id="198" value="" style="whiteSpace=wrap;html=1;aspect=fixed;" parent="1" vertex="1">
                    <mxGeometry x="939" y="-733" width="588" height="588" as="geometry"/>
                </mxCell>
                <mxCell id="199" value="Time Trial" style="rounded=0;whiteSpace=wrap;html=1;fillColor=#2A2A2A;" parent="1" vertex="1">
                    <mxGeometry x="939" y="-733" width="587" height="60" as="geometry"/>
                </mxCell>
                <mxCell id="200" value="Add Time" style="rounded=1;whiteSpace=wrap;html=1;fillColor=#2A2A2A;" parent="1" vertex="1">
                    <mxGeometry x="1411" y="-723" width="106" height="41" as="geometry"/>
                </mxCell>
                <mxCell id="210" value="" style="endArrow=classic;html=1;" parent="1" edge="1">
                    <mxGeometry width="50" height="50" relative="1" as="geometry">
                        <mxPoint x="696" y="-450.17999999999995" as="sourcePoint"/>
                        <mxPoint x="909" y="-450.17999999999995" as="targetPoint"/>
                    </mxGeometry>
                </mxCell>
                <mxCell id="211" value="" style="rounded=0;whiteSpace=wrap;html=1;" parent="1" vertex="1">
                    <mxGeometry x="1077.25" y="-630" width="310.5" height="340" as="geometry"/>
                </mxCell>
                <mxCell id="212" value="Spa" style="rounded=0;whiteSpace=wrap;html=1;" parent="1" vertex="1">
                    <mxGeometry x="1101.5" y="-573" width="187" height="60" as="geometry"/>
                </mxCell>
                <mxCell id="213" value="Select" style="rounded=0;whiteSpace=wrap;html=1;" parent="1" vertex="1">
                    <mxGeometry x="1288.5" y="-573" width="75" height="60" as="geometry"/>
                </mxCell>
                <mxCell id="214" value="Monza" style="rounded=0;whiteSpace=wrap;html=1;" parent="1" vertex="1">
                    <mxGeometry x="1101.5" y="-513" width="187" height="60" as="geometry"/>
                </mxCell>
                <mxCell id="215" value="Select" style="rounded=0;whiteSpace=wrap;html=1;" parent="1" vertex="1">
                    <mxGeometry x="1288.5" y="-513" width="75" height="60" as="geometry"/>
                </mxCell>
                <mxCell id="216" value="Jeddah" style="rounded=0;whiteSpace=wrap;html=1;" parent="1" vertex="1">
                    <mxGeometry x="1101.5" y="-453" width="187" height="60" as="geometry"/>
                </mxCell>
                <mxCell id="217" value="Select" style="rounded=0;whiteSpace=wrap;html=1;" parent="1" vertex="1">
                    <mxGeometry x="1288.5" y="-453" width="75" height="60" as="geometry"/>
                </mxCell>
                <mxCell id="218" value="Bahrain" style="rounded=0;whiteSpace=wrap;html=1;" parent="1" vertex="1">
                    <mxGeometry x="1101.5" y="-393" width="187" height="60" as="geometry"/>
                </mxCell>
                <mxCell id="219" value="Select" style="rounded=0;whiteSpace=wrap;html=1;" parent="1" vertex="1">
                    <mxGeometry x="1288.5" y="-393" width="75" height="60" as="geometry"/>
                </mxCell>
                <mxCell id="220" value="" style="rounded=0;whiteSpace=wrap;html=1;" parent="1" vertex="1">
                    <mxGeometry x="2033.75" y="-591" width="310.5" height="357" as="geometry"/>
                </mxCell>
                <mxCell id="221" value="Results" style="rounded=0;whiteSpace=wrap;html=1;" parent="1" vertex="1">
                    <mxGeometry x="2034" y="-589" width="310" height="60" as="geometry"/>
                </mxCell>
                <mxCell id="222" value="Position" style="rounded=0;whiteSpace=wrap;html=1;fillColor=#2A2A2A;" parent="1" vertex="1">
                    <mxGeometry x="2051" y="-513.75" width="80" height="32.75" as="geometry"/>
                </mxCell>
                <mxCell id="223" value="Time" style="rounded=0;whiteSpace=wrap;html=1;fillColor=#2A2A2A;" parent="1" vertex="1">
                    <mxGeometry x="2129" y="-513.75" width="64" height="32.75" as="geometry"/>
                </mxCell>
                <mxCell id="224" value="Name" style="rounded=0;whiteSpace=wrap;html=1;fillColor=#2A2A2A;" parent="1" vertex="1">
                    <mxGeometry x="2191" y="-513.75" width="70" height="32.75" as="geometry"/>
                </mxCell>
                <mxCell id="225" value="Car" style="rounded=0;whiteSpace=wrap;html=1;fillColor=#2A2A2A;" parent="1" vertex="1">
                    <mxGeometry x="2261" y="-513.75" width="70" height="32.75" as="geometry"/>
                </mxCell>
                <mxCell id="226" value="1" style="rounded=0;whiteSpace=wrap;html=1;fillColor=#2A2A2A;" parent="1" vertex="1">
                    <mxGeometry x="2051" y="-481" width="80" height="32.75" as="geometry"/>
                </mxCell>
                <mxCell id="227" value="Equal perofrmance" style="rounded=0;whiteSpace=wrap;html=1;fillColor=#2A2A2A;" parent="1" vertex="1">
                    <mxGeometry x="2261" y="-481" width="70" height="32.75" as="geometry"/>
                </mxCell>
                <mxCell id="228" value="2" style="rounded=0;whiteSpace=wrap;html=1;fillColor=#2A2A2A;" parent="1" vertex="1">
                    <mxGeometry x="2051" y="-448.25" width="80" height="32.75" as="geometry"/>
                </mxCell>
                <mxCell id="229" value="TRZ" style="rounded=0;whiteSpace=wrap;html=1;fillColor=#2A2A2A;" parent="1" vertex="1">
                    <mxGeometry x="2191" y="-448.25" width="70" height="32.75" as="geometry"/>
                </mxCell>
                <mxCell id="230" value="3" style="rounded=0;whiteSpace=wrap;html=1;fillColor=#2A2A2A;" parent="1" vertex="1">
                    <mxGeometry x="2051" y="-415.5" width="80" height="32.75" as="geometry"/>
                </mxCell>
                <mxCell id="231" value="1:29.762" style="rounded=0;whiteSpace=wrap;html=1;fillColor=#2A2A2A;" parent="1" vertex="1">
                    <mxGeometry x="2129" y="-415.5" width="64" height="32.75" as="geometry"/>
                </mxCell>
                <mxCell id="232" value="4" style="rounded=0;whiteSpace=wrap;html=1;fillColor=#2A2A2A;" parent="1" vertex="1">
                    <mxGeometry x="2051" y="-382.75" width="80" height="32.75" as="geometry"/>
                </mxCell>
                <mxCell id="233" value="5" style="rounded=0;whiteSpace=wrap;html=1;fillColor=#2A2A2A;" parent="1" vertex="1">
                    <mxGeometry x="2051" y="-350" width="80" height="32.75" as="geometry"/>
                </mxCell>
                <mxCell id="234" value="1:30.035" style="rounded=0;whiteSpace=wrap;html=1;fillColor=#2A2A2A;" parent="1" vertex="1">
                    <mxGeometry x="2129" y="-350" width="64" height="32.75" as="geometry"/>
                </mxCell>
                <mxCell id="235" value="MAT" style="rounded=0;whiteSpace=wrap;html=1;fillColor=#2A2A2A;" parent="1" vertex="1">
                    <mxGeometry x="2191" y="-350" width="70" height="32.75" as="geometry"/>
                </mxCell>
                <mxCell id="236" value="Equal perofrmance" style="rounded=0;whiteSpace=wrap;html=1;fillColor=#2A2A2A;" parent="1" vertex="1">
                    <mxGeometry x="2261" y="-350" width="70" height="32.75" as="geometry"/>
                </mxCell>
                <mxCell id="237" value="Add New Time" style="rounded=1;whiteSpace=wrap;html=1;fillColor=#2A2A2A;" parent="1" vertex="1">
                    <mxGeometry x="2138" y="-306" width="120" height="60" as="geometry"/>
                </mxCell>
                <mxCell id="238" value="1:29.456" style="rounded=0;whiteSpace=wrap;html=1;fillColor=#2A2A2A;" parent="1" vertex="1">
                    <mxGeometry x="2129" y="-478.62" width="64" height="32.75" as="geometry"/>
                </mxCell>
                <mxCell id="239" value="TMP" style="rounded=0;whiteSpace=wrap;html=1;fillColor=#2A2A2A;" parent="1" vertex="1">
                    <mxGeometry x="2191" y="-478.62" width="70" height="32.75" as="geometry"/>
                </mxCell>
                <mxCell id="240" value="1:29.510" style="rounded=0;whiteSpace=wrap;html=1;fillColor=#2A2A2A;" parent="1" vertex="1">
                    <mxGeometry x="2129" y="-445.87" width="64" height="32.75" as="geometry"/>
                </mxCell>
                <mxCell id="241" value="JBL" style="rounded=0;whiteSpace=wrap;html=1;fillColor=#2A2A2A;" parent="1" vertex="1">
                    <mxGeometry x="2191" y="-413.12" width="70" height="32.75" as="geometry"/>
                </mxCell>
                <mxCell id="242" value="1:29.829" style="rounded=0;whiteSpace=wrap;html=1;fillColor=#2A2A2A;" parent="1" vertex="1">
                    <mxGeometry x="2129" y="-380.37" width="64" height="32.75" as="geometry"/>
                </mxCell>
                <mxCell id="243" value="ALB" style="rounded=0;whiteSpace=wrap;html=1;fillColor=#2A2A2A;" parent="1" vertex="1">
                    <mxGeometry x="2191" y="-380.37" width="70" height="32.75" as="geometry"/>
                </mxCell>
                <mxCell id="244" value="Equal perofrmance" style="rounded=0;whiteSpace=wrap;html=1;fillColor=#2A2A2A;" parent="1" vertex="1">
                    <mxGeometry x="2261" y="-445.87" width="70" height="32.75" as="geometry"/>
                </mxCell>
                <mxCell id="245" value="Equal perofrmance" style="rounded=0;whiteSpace=wrap;html=1;fillColor=#2A2A2A;" parent="1" vertex="1">
                    <mxGeometry x="2261" y="-413.12" width="70" height="32.75" as="geometry"/>
                </mxCell>
                <mxCell id="246" value="Equal perofrmance" style="rounded=0;whiteSpace=wrap;html=1;fillColor=#2A2A2A;" parent="1" vertex="1">
                    <mxGeometry x="2261" y="-379.12" width="70" height="32.75" as="geometry"/>
                </mxCell>
                <mxCell id="248" value="Time Trial" style="rounded=0;whiteSpace=wrap;html=1;fillColor=#2A2A2A;" parent="1" vertex="1">
                    <mxGeometry x="1887" y="-723" width="587" height="60" as="geometry"/>
                </mxCell>
                <mxCell id="249" value="Add Time" style="rounded=1;whiteSpace=wrap;html=1;fillColor=#2A2A2A;" parent="1" vertex="1">
                    <mxGeometry x="2359" y="-713" width="106" height="41" as="geometry"/>
                </mxCell>
                <mxCell id="260" value="" style="whiteSpace=wrap;html=1;aspect=fixed;" parent="1" vertex="1">
                    <mxGeometry x="2827" y="-723" width="588" height="588" as="geometry"/>
                </mxCell>
                <mxCell id="261" value="" style="rounded=0;whiteSpace=wrap;html=1;" parent="1" vertex="1">
                    <mxGeometry x="2965.75" y="-580.25" width="310.5" height="364.25" as="geometry"/>
                </mxCell>
                <mxCell id="262" value="f1_21" style="rounded=0;whiteSpace=wrap;html=1;" parent="1" vertex="1">
                    <mxGeometry x="2990" y="-549" width="187" height="60" as="geometry"/>
                </mxCell>
                <mxCell id="263" value="Time Trials" style="rounded=0;whiteSpace=wrap;html=1;" parent="1" vertex="1">
                    <mxGeometry x="2826" y="-723" width="589" height="60" as="geometry"/>
                </mxCell>
                <mxCell id="264" value="Select" style="rounded=0;whiteSpace=wrap;html=1;" parent="1" vertex="1">
                    <mxGeometry x="3177" y="-549" width="75" height="60" as="geometry"/>
                </mxCell>
                <mxCell id="265" value="f1_22" style="rounded=0;whiteSpace=wrap;html=1;" parent="1" vertex="1">
                    <mxGeometry x="2990" y="-489" width="187" height="60" as="geometry"/>
                </mxCell>
                <mxCell id="266" value="Select" style="rounded=0;whiteSpace=wrap;html=1;" parent="1" vertex="1">
                    <mxGeometry x="3177" y="-489" width="75" height="60" as="geometry"/>
                </mxCell>
                <mxCell id="267" value="acc" style="rounded=0;whiteSpace=wrap;html=1;" parent="1" vertex="1">
                    <mxGeometry x="2990" y="-429" width="187" height="60" as="geometry"/>
                </mxCell>
                <mxCell id="268" value="Select" style="rounded=0;whiteSpace=wrap;html=1;" parent="1" vertex="1">
                    <mxGeometry x="3177" y="-429" width="75" height="60" as="geometry"/>
                </mxCell>
                <mxCell id="269" value="forza" style="rounded=0;whiteSpace=wrap;html=1;" parent="1" vertex="1">
                    <mxGeometry x="2990" y="-369" width="187" height="60" as="geometry"/>
                </mxCell>
                <mxCell id="270" value="Select" style="rounded=0;whiteSpace=wrap;html=1;" parent="1" vertex="1">
                    <mxGeometry x="3177" y="-369" width="75" height="60" as="geometry"/>
                </mxCell>
                <mxCell id="271" value="Add New Time" style="rounded=1;whiteSpace=wrap;html=1;fillColor=#2A2A2A;" parent="1" vertex="1">
                    <mxGeometry x="3320" y="-713" width="84" height="40" as="geometry"/>
                </mxCell>
                <mxCell id="272" value="Add New Game" style="rounded=1;whiteSpace=wrap;html=1;fillColor=#2A2A2A;" parent="1" vertex="1">
                    <mxGeometry x="3061" y="-292.6199999999999" width="120" height="60" as="geometry"/>
                </mxCell>
                <mxCell id="273" value="" style="rounded=0;whiteSpace=wrap;html=1;fillColor=#2A2A2A;" parent="1" vertex="1">
                    <mxGeometry x="2921" y="-603" width="407" height="416" as="geometry"/>
                </mxCell>
                <mxCell id="274" value="Add New Time" style="rounded=0;whiteSpace=wrap;html=1;fillColor=#2A2A2A;" parent="1" vertex="1">
                    <mxGeometry x="2921" y="-603" width="406" height="60" as="geometry"/>
                </mxCell>
                <mxCell id="275" value="Game:" style="rounded=0;whiteSpace=wrap;html=1;fillColor=#2A2A2A;" parent="1" vertex="1">
                    <mxGeometry x="3021.5" y="-495" width="79" height="29" as="geometry"/>
                </mxCell>
                <mxCell id="276" value="" style="rounded=0;whiteSpace=wrap;html=1;fillColor=#2A2A2A;" parent="1" vertex="1">
                    <mxGeometry x="3100.5" y="-495" width="120" height="29" as="geometry"/>
                </mxCell>
                <mxCell id="277" value="Track:" style="rounded=0;whiteSpace=wrap;html=1;fillColor=#2A2A2A;" parent="1" vertex="1">
                    <mxGeometry x="3021.5" y="-439" width="79" height="29" as="geometry"/>
                </mxCell>
                <mxCell id="278" value="" style="rounded=0;whiteSpace=wrap;html=1;fillColor=#2A2A2A;" parent="1" vertex="1">
                    <mxGeometry x="3100.5" y="-439" width="120" height="29" as="geometry"/>
                </mxCell>
                <mxCell id="279" value="Driver:" style="rounded=0;whiteSpace=wrap;html=1;fillColor=#2A2A2A;" parent="1" vertex="1">
                    <mxGeometry x="3021.5" y="-385" width="79" height="29" as="geometry"/>
                </mxCell>
                <mxCell id="280" value="" style="rounded=0;whiteSpace=wrap;html=1;fillColor=#2A2A2A;" parent="1" vertex="1">
                    <mxGeometry x="3100.5" y="-385" width="120" height="29" as="geometry"/>
                </mxCell>
                <mxCell id="281" value="Time:" style="rounded=0;whiteSpace=wrap;html=1;fillColor=#2A2A2A;" parent="1" vertex="1">
                    <mxGeometry x="3021.5" y="-335" width="79" height="29" as="geometry"/>
                </mxCell>
                <mxCell id="282" value="" style="rounded=0;whiteSpace=wrap;html=1;fillColor=#2A2A2A;" parent="1" vertex="1">
                    <mxGeometry x="3100.5" y="-335" width="120" height="29" as="geometry"/>
                </mxCell>
                <mxCell id="283" value="Submit" style="rounded=1;whiteSpace=wrap;html=1;fillColor=#2A2A2A;" parent="1" vertex="1">
                    <mxGeometry x="3075.5" y="-273" width="90" height="37" as="geometry"/>
                </mxCell>
                <mxCell id="284" value="" style="endArrow=classic;html=1;" parent="1" edge="1">
                    <mxGeometry width="50" height="50" relative="1" as="geometry">
                        <mxPoint x="1625" y="-440.17999999999984" as="sourcePoint"/>
                        <mxPoint x="1837.9999999999995" y="-440.17999999999984" as="targetPoint"/>
                    </mxGeometry>
                </mxCell>
                <mxCell id="285" value="Go Back" style="rounded=1;whiteSpace=wrap;html=1;fillColor=#2A2A2A;" parent="1" vertex="1">
                    <mxGeometry x="1101.5" y="-617" width="79.5" height="30.75" as="geometry"/>
                </mxCell>
                <mxCell id="286" value="Go Back" style="rounded=1;whiteSpace=wrap;html=1;fillColor=#2A2A2A;" parent="1" vertex="1">
                    <mxGeometry x="2049.5" y="-574.38" width="79.5" height="30.75" as="geometry"/>
                </mxCell>
            </root>
        </mxGraphModel>
    </diagram>
</mxfile>